<svg width="32" height="32" class="" viewBox="0 0 32 32" fill="none" xmlns="http://www.w3.org/2000/svg" data-fg-k3p0="1.14:1.1757:/src/app/components/Favicon.tsx:3:5:111:1246:e:svg:etxtetxtetxtetetxtetetete:1" data-fgid-k3p0=":re:" data-fg-callsite-d3bl16=""><defs data-fg-k3p1="1.14:1.1757:/src/app/components/Favicon.tsx:11:7:280:278:e:defs:e"><linearGradient id="faviconBg" x1="0%" y1="0%" x2="100%" y2="100%" data-fg-k3p2="1.14:1.1757:/src/app/components/Favicon.tsx:12:9:295:249:e:linearGradient:etete"><stop offset="0%" stop-color="#ec4899" data-fg-k3p3="1.14:1.1757:/src/app/components/Favicon.tsx:13:11:373:40:e:stop"></stop><stop offset="50%" stop-color="#8b5cf6" data-fg-k3p4="1.14:1.1757:/src/app/components/Favicon.tsx:14:11:424:41:e:stop"></stop><stop offset="100%" stop-color="#3b82f6" data-fg-k3p5="1.14:1.1757:/src/app/components/Favicon.tsx:15:11:476:42:e:stop"></stop></linearGradient></defs><rect width="32" height="32" rx="8" fill="url(#faviconBg)" data-fg-k3p7="1.14:1.1757:/src/app/components/Favicon.tsx:20:7:607:61:e:rect"></rect><path d="M9 14 C9 12.5 10 11 12 11 L20 11 C22 11 23 12.5 23 14 L23.5 19 C24 20.5 22.5 22 21 22 L11 22 C9.5 22 8 20.5 8.5 19 Z" fill="#fff" opacity="0.95" data-fg-k3p9="1.14:1.1757:/src/app/components/Favicon.tsx:23:7:707:186:e:path"></path><rect x="12" y="15" width="1.2" height="3.5" fill="url(#faviconBg)" rx="0.6" data-fg-k3p11="1.14:1.1757:/src/app/components/Favicon.tsx:30:7:929:79:e:rect"></rect><rect x="11" y="15.8" width="3.5" height="2" fill="url(#faviconBg)" rx="0.6" data-fg-k3p12="1.14:1.1757:/src/app/components/Favicon.tsx:31:7:1015:79:e:rect"></rect><circle cx="19" cy="14.5" r="1" fill="#22d3ee" data-fg-k3p14="1.14:1.1757:/src/app/components/Favicon.tsx:34:7:1129:49:e:circle"></circle><circle cx="20.5" cy="16" r="1" fill="#a78bfa" data-fg-k3p15="1.14:1.1757:/src/app/components/Favicon.tsx:35:7:1185:49:e:circle"></circle><circle cx="19" cy="17.5" r="1" fill="#f472b6" data-fg-k3p16="1.14:1.1757:/src/app/components/Favicon.tsx:36:7:1241:49:e:circle"></circle><circle cx="17.5" cy="16" r="1" fill="#60a5fa" data-fg-k3p17="1.14:1.1757:/src/app/components/Favicon.tsx:37:7:1297:49:e:circle"></circle></svg>