            <svg class="w-48" viewBox="0 0 240 60" fill="none" xmlns="http://www.w3.org/2000/svg"><defs><linearGradient id="iconGradient" x1="0%" y1="0%" x2="100%" y2="100%"><stop offset="0%" stop-color="#ec4899"></stop><stop offset="50%" stop-color="#8b5cf6"></stop><stop offset="100%" stop-color="#3b82f6"></stop></linearGradient><linearGradient id="textGradient" x1="0%" y1="0%" x2="100%" y2="0%"><stop offset="0%" stop-color="#06b6d4"></stop><stop offset="100%" stop-color="#8b5cf6"></stop></linearGradient></defs><g><ellipse cx="30" cy="30" rx="26" ry="20" fill="url(#iconGradient)" opacity="0.2"></ellipse><path d="M15 26 C15 22 17 19 21 19 L39 19 C43 19 45 22 45 26 L46 34 C46.5 37 44.5 40 41 40 L19 40 C15.5 40 13.5 37 14 34 Z" fill="url(#iconGradient)"></path><g opacity="0.9"><rect x="21" y="27" width="2" height="6" fill="#fff" rx="1"></rect><rect x="20" y="28" width="4" height="4" fill="#fff" rx="1"></rect></g><circle cx="37" cy="26" r="2" fill="#22d3ee"></circle><circle cx="40" cy="29" r="2" fill="#a78bfa"></circle><circle cx="37" cy="32" r="2" fill="#f472b6"></circle><circle cx="34" cy="29" r="2" fill="#60a5fa"></circle><path d="M25 24 L26 23" stroke="#22d3ee" stroke-width="1.5" stroke-linecap="round" opacity="0.6"></path><path d="M28 23 L29 22" stroke="#a78bfa" stroke-width="1.5" stroke-linecap="round" opacity="0.6"></path></g><text x="65" y="38" font-family="system-ui, -apple-system, sans-serif" font-size="32" font-weight="900" fill="#fff" letter-spacing="0">Quest</text><text x="150" y="38" font-family="system-ui, -apple-system, sans-serif" font-size="32" font-weight="900" fill="url(#textGradient)" letter-spacing="0">Hub</text><rect x="65" y="43" width="45" height="2" fill="#ec4899" rx="1" opacity="0.6"></rect><rect x="150" y="43" width="60" height="2" fill="url(#textGradient)" rx="1"></rect></svg>